<?xml version="1.0" standalone="no"?>
<!DOCTYPE svg PUBLIC "-//W3C//DTD SVG 20010904//EN"
 "http://www.w3.org/TR/2001/REC-SVG-20010904/DTD/svg10.dtd">
<svg version="1.0" xmlns="http://www.w3.org/2000/svg"
 width="558.000000pt" height="558.000000pt" viewBox="0 0 558.000000 558.000000"
 preserveAspectRatio="xMidYMid meet">
<metadata>
Created by potrace 1.14, written by Peter Selinger 2001-2017
</metadata>
<g transform="translate(0.000000,558.000000) scale(0.100000,-0.100000)"
fill="#000000" stroke="none">
<path d="M13 5548 c31 -72 250 -585 263 -613 7 -16 61 -142 119 -280 59 -137
113 -263 120 -280 8 -16 41 -95 75 -175 33 -80 67 -158 75 -175 7 -16 66 -154
130 -305 65 -151 259 -606 432 -1010 173 -404 353 -825 400 -935 47 -110 91
-213 98 -230 8 -16 41 -95 75 -175 34 -79 67 -158 74 -175 7 -16 19 -43 26
-60 28 -66 202 -473 219 -510 10 -22 74 -172 142 -332 l124 -293 172 0 171 0
-13 28 c-7 15 -45 106 -85 202 -40 96 -80 193 -90 215 -10 22 -70 164 -133
315 -404 965 -511 1220 -528 1259 -11 23 -40 91 -64 150 -51 125 -151 363
-170 406 -8 17 -23 53 -34 81 -11 28 -29 71 -39 95 -11 24 -50 115 -86 202
-36 86 -95 226 -130 310 -70 164 -225 535 -356 847 -75 181 -98 234 -120 285
-5 11 -46 108 -91 215 -113 271 -298 713 -356 850 l-49 115 -192 3 -192 2 13
-32z"/>
<path d="M510 5555 c5 -14 18 -45 29 -69 11 -24 52 -119 91 -212 39 -93 82
-193 96 -222 13 -29 24 -55 24 -57 0 -3 9 -24 19 -48 11 -23 135 -312 276
-642 141 -330 262 -613 269 -630 8 -16 98 -228 201 -470 103 -242 195 -458
205 -480 10 -22 64 -148 120 -280 56 -132 110 -258 120 -280 10 -22 82 -191
160 -375 78 -184 150 -353 160 -375 25 -55 222 -517 431 -1007 l173 -408 173
0 173 0 -20 42 c-18 39 -191 451 -315 748 -26 63 -67 160 -90 215 -23 55 -136
323 -250 595 -114 272 -213 509 -220 525 -7 17 -57 134 -110 260 -52 127 -102
244 -109 260 -14 31 -44 101 -210 500 -53 127 -100 239 -105 250 -5 11 -18 41
-30 67 -12 26 -21 50 -21 52 0 2 -33 82 -74 178 -40 95 -178 423 -306 728
-129 305 -278 661 -332 790 -55 129 -112 265 -126 303 l-27 67 -192 0 -193 0
10 -25z"/>
<path d="M3909 5533 c-11 -27 -27 -61 -34 -78 -8 -16 -271 -628 -585 -1360
-314 -731 -577 -1343 -585 -1360 -59 -131 -215 -502 -215 -512 0 -7 23 -71 50
-141 28 -71 50 -131 50 -135 0 -4 9 -26 19 -50 11 -23 27 -64 37 -92 24 -69
29 -72 47 -26 9 22 25 59 36 83 11 24 72 167 137 318 64 151 125 293 134 315
10 22 39 90 65 150 26 61 53 124 60 140 7 17 68 158 135 315 67 157 128 299
135 315 36 80 925 2157 925 2161 0 2 -88 4 -195 4 l-196 0 -20 -47z"/>
<path d="M4311 5007 c-135 -314 -251 -583 -258 -597 -7 -14 -31 -70 -54 -125
-23 -55 -50 -118 -60 -140 -10 -22 -82 -188 -159 -370 -78 -181 -191 -442
-250 -580 -59 -137 -156 -362 -215 -500 -59 -137 -115 -266 -123 -285 -9 -19
-16 -37 -17 -40 -1 -3 -8 -21 -17 -40 -8 -19 -95 -221 -193 -448 -154 -358
-176 -416 -166 -435 14 -27 149 -379 162 -425 6 -18 13 -30 17 -28 4 3 23 40
41 83 18 43 39 92 47 108 7 17 151 352 319 745 168 393 312 728 320 745 7 16
228 532 491 1145 262 613 485 1133 495 1155 15 33 198 460 246 573 l13 32
-197 0 -198 -1 -244 -572z"/>
<path d="M4945 5024 c-132 -306 -250 -579 -261 -608 -28 -66 -611 -1421 -629
-1461 -21 -46 -77 -176 -80 -185 -1 -3 -8 -21 -17 -40 -8 -19 -77 -179 -153
-355 -75 -176 -145 -338 -155 -360 -10 -22 -43 -101 -75 -175 -31 -74 -65
-153 -75 -175 -26 -57 -38 -84 -231 -534 l-173 -404 18 -51 c10 -28 37 -100
61 -161 24 -60 55 -144 71 -185 15 -41 30 -78 34 -83 4 -4 150 327 325 735
175 409 326 761 336 783 10 22 72 168 139 325 67 157 128 299 135 315 7 17
252 586 543 1265 487 1137 556 1297 582 1355 5 11 21 49 36 85 14 36 34 83 44
105 53 117 150 347 150 355 0 6 -77 10 -193 10 l-192 0 -240 -556z"/>
</g>
</svg>
