<svg width="224" height="76" viewBox="0 0 224 76" fill="none" xmlns="http://www.w3.org/2000/svg">
<path d="M29.4809 2.72802L18.4409 37H11.2889L0.296875 2.72802H7.16088L13.1609 23.704C13.3209 24.28 13.5129 25.032 13.7369 25.96C13.9929 26.856 14.2169 27.784 14.4089 28.744C14.6329 29.672 14.7929 30.504 14.8889 31.24C14.9849 30.504 15.1289 29.672 15.3209 28.744C15.5449 27.816 15.7689 26.888 15.9929 25.96C16.2169 25.032 16.4249 24.28 16.6169 23.704L22.5689 2.72802H29.4809Z" fill="black"/>
<path d="M42.2894 10.504C44.5294 10.504 46.4494 10.984 48.0494 11.944C49.6814 12.872 50.9454 14.216 51.8414 15.976C52.7374 17.704 53.1854 19.816 53.1854 22.312V25.384H37.2494C37.3134 27.752 37.8894 29.592 38.9774 30.904C40.0974 32.184 41.6654 32.824 43.6814 32.824C45.2814 32.824 46.7054 32.664 47.9534 32.344C49.2014 31.992 50.4974 31.496 51.8414 30.856V35.704C50.6254 36.312 49.3614 36.76 48.0494 37.048C46.7374 37.336 45.1214 37.48 43.2014 37.48C40.7694 37.48 38.6094 37 36.7214 36.04C34.8654 35.048 33.4094 33.56 32.3534 31.576C31.2974 29.592 30.7694 27.128 30.7694 24.184C30.7694 21.208 31.2494 18.712 32.2094 16.696C33.1694 14.648 34.5134 13.112 36.2414 12.088C38.0014 11.032 40.0174 10.504 42.2894 10.504ZM42.3854 14.968C40.9454 14.968 39.7774 15.496 38.8814 16.552C38.0174 17.576 37.5054 19.112 37.3454 21.16H47.1374C47.1374 19.944 46.9614 18.872 46.6094 17.944C46.2574 17.016 45.7294 16.296 45.0254 15.784C44.3534 15.24 43.4734 14.968 42.3854 14.968Z" fill="black"/>
<path d="M68.8195 32.632C69.5235 32.632 70.1955 32.568 70.8355 32.44C71.5075 32.28 72.1315 32.104 72.7075 31.912V36.424C72.0355 36.712 71.2195 36.952 70.2595 37.144C69.2995 37.368 68.2275 37.48 67.0435 37.48C65.5715 37.48 64.2595 37.24 63.1075 36.76C61.9555 36.248 61.0435 35.384 60.3715 34.168C59.7315 32.952 59.4115 31.256 59.4115 29.08V15.544H56.1475V12.904L59.7955 10.792L61.7155 5.27202H65.7475V10.984H72.4675V15.544H65.7475V29.032C65.7475 30.248 66.0195 31.16 66.5635 31.768C67.1395 32.344 67.8915 32.632 68.8195 32.632Z" fill="black"/>
<path d="M87.8564 10.504C90.9924 10.504 93.3924 11.24 95.0564 12.712C96.7204 14.152 97.5524 16.424 97.5524 19.528V37H93.0884L91.8404 33.4H91.6484C90.9444 34.328 90.2244 35.112 89.4884 35.752C88.7524 36.36 87.9044 36.792 86.9444 37.048C85.9844 37.336 84.8324 37.48 83.4884 37.48C82.0484 37.48 80.7524 37.192 79.6004 36.616C78.4484 36.04 77.5364 35.16 76.8644 33.976C76.1924 32.76 75.8564 31.24 75.8564 29.416C75.8564 26.728 76.7844 24.712 78.6404 23.368C80.4964 21.992 83.2804 21.24 86.9924 21.112L91.1684 20.968V19.672C91.1684 18.008 90.8164 16.824 90.1124 16.12C89.4084 15.416 88.4484 15.064 87.2324 15.064C86.0804 15.064 84.9124 15.256 83.7284 15.64C82.5764 16.024 81.4404 16.472 80.3204 16.984L78.3524 12.76C79.6644 12.088 81.1204 11.544 82.7204 11.128C84.3204 10.712 86.0324 10.504 87.8564 10.504ZM88.4804 24.808C86.2084 24.904 84.6244 25.368 83.7284 26.2C82.8324 27 82.3844 28.088 82.3844 29.464C82.3844 30.68 82.6884 31.56 83.2964 32.104C83.9364 32.648 84.7684 32.92 85.7924 32.92C87.2964 32.92 88.5764 32.424 89.6324 31.432C90.6884 30.408 91.2164 28.904 91.2164 26.92V24.712L88.4804 24.808Z" fill="black"/>
<path d="M130.467 7.43202C129.123 7.43202 127.907 7.72002 126.819 8.29602C125.731 8.87202 124.803 9.70402 124.035 10.792C123.299 11.88 122.738 13.192 122.354 14.728C121.97 16.264 121.779 17.992 121.779 19.912C121.779 22.504 122.099 24.728 122.739 26.584C123.379 28.408 124.355 29.816 125.667 30.808C126.979 31.8 128.627 32.296 130.611 32.296C131.987 32.296 133.331 32.152 134.643 31.864C135.955 31.544 137.282 31.128 138.626 30.616V35.848C137.314 36.424 135.955 36.84 134.547 37.096C133.171 37.352 131.619 37.48 129.891 37.48C126.531 37.48 123.763 36.76 121.587 35.32C119.411 33.848 117.778 31.8 116.69 29.176C115.634 26.52 115.106 23.416 115.106 19.864C115.106 17.272 115.443 14.904 116.115 12.76C116.787 10.616 117.778 8.76002 119.09 7.19202C120.402 5.62402 122.018 4.40802 123.938 3.54402C125.858 2.68002 128.05 2.24802 130.514 2.24802C132.146 2.24802 133.794 2.45602 135.458 2.87202C137.154 3.25602 138.642 3.80002 139.923 4.50402L137.762 9.54402C136.642 9.00002 135.474 8.52002 134.258 8.10402C133.074 7.65602 131.811 7.43202 130.467 7.43202Z" fill="black"/>
<path d="M151.184 9.20802C151.184 10.232 151.136 11.24 151.04 12.232C150.976 13.192 150.912 13.912 150.848 14.392H151.232C151.744 13.496 152.352 12.776 153.056 12.232C153.792 11.656 154.608 11.224 155.504 10.936C156.432 10.648 157.392 10.504 158.384 10.504C160.208 10.504 161.776 10.84 163.088 11.512C164.4 12.184 165.424 13.224 166.16 14.632C166.896 16.008 167.264 17.816 167.264 20.056V37H160.88V21.256C160.88 19.272 160.544 17.8 159.872 16.84C159.2 15.88 158.144 15.4 156.704 15.4C155.328 15.4 154.224 15.752 153.392 16.456C152.56 17.128 151.984 18.136 151.664 19.48C151.344 20.792 151.184 22.408 151.184 24.328V37H144.8V0.52002H151.184V9.20802Z" fill="black"/>
<path d="M184.466 10.504C187.602 10.504 190.002 11.24 191.666 12.712C193.33 14.152 194.162 16.424 194.162 19.528V37H189.698L188.45 33.4H188.258C187.554 34.328 186.834 35.112 186.098 35.752C185.362 36.36 184.514 36.792 183.554 37.048C182.594 37.336 181.442 37.48 180.098 37.48C178.658 37.48 177.362 37.192 176.21 36.616C175.058 36.04 174.146 35.16 173.474 33.976C172.802 32.76 172.466 31.24 172.466 29.416C172.466 26.728 173.394 24.712 175.25 23.368C177.106 21.992 179.89 21.24 183.602 21.112L187.778 20.968V19.672C187.778 18.008 187.426 16.824 186.722 16.12C186.018 15.416 185.058 15.064 183.842 15.064C182.69 15.064 181.522 15.256 180.338 15.64C179.186 16.024 178.05 16.472 176.93 16.984L174.962 12.76C176.274 12.088 177.73 11.544 179.33 11.128C180.93 10.712 182.642 10.504 184.466 10.504ZM185.09 24.808C182.818 24.904 181.234 25.368 180.338 26.2C179.442 27 178.994 28.088 178.994 29.464C178.994 30.68 179.298 31.56 179.906 32.104C180.546 32.648 181.378 32.92 182.402 32.92C183.906 32.92 185.186 32.424 186.242 31.432C187.298 30.408 187.826 28.904 187.826 26.92V24.712L185.09 24.808Z" fill="black"/>
<path d="M214.589 10.504C217.309 10.504 219.453 11.256 221.021 12.76C222.589 14.264 223.373 16.696 223.373 20.056V37H216.989V21.256C216.989 19.304 216.653 17.848 215.981 16.888C215.309 15.896 214.253 15.4 212.813 15.4C210.669 15.4 209.213 16.168 208.445 17.704C207.677 19.208 207.293 21.4 207.293 24.28V37H200.909V10.984H205.805L206.717 14.392H206.957C207.533 13.496 208.205 12.76 208.973 12.184C209.741 11.608 210.605 11.192 211.565 10.936C212.525 10.648 213.533 10.504 214.589 10.504Z" fill="black"/>
<path d="M13.8539 70H12.4859V52.864H20.4299V54.088H13.8539V61.168H20.0699V62.416H13.8539V70Z" fill="black"/>
<path d="M27.1887 57.016C27.4447 57.016 27.6927 57.032 27.9327 57.064C28.1727 57.096 28.3967 57.152 28.6047 57.232L28.3887 58.504C28.1967 58.44 27.9887 58.392 27.7647 58.36C27.5567 58.312 27.3407 58.288 27.1167 58.288C26.6367 58.288 26.1967 58.416 25.7967 58.672C25.4127 58.912 25.0847 59.248 24.8127 59.68C24.5407 60.112 24.3327 60.624 24.1887 61.216C24.0447 61.792 23.9727 62.424 23.9727 63.112V70H22.6287V57.232H23.7327L23.9007 59.68H23.9727C24.1487 59.2 24.3807 58.76 24.6687 58.36C24.9727 57.944 25.3327 57.616 25.7487 57.376C26.1807 57.136 26.6607 57.016 27.1887 57.016Z" fill="black"/>
<path d="M34.4196 56.992C35.3796 56.992 36.1716 57.248 36.7956 57.76C37.4196 58.272 37.8916 58.968 38.2116 59.848C38.5316 60.712 38.6916 61.696 38.6916 62.8V63.76H31.0596C31.0756 65.488 31.4036 66.808 32.0436 67.72C32.6996 68.616 33.6436 69.064 34.8756 69.064C35.4996 69.064 36.0676 69 36.5796 68.872C37.0916 68.728 37.6356 68.504 38.2116 68.2V69.424C37.6996 69.696 37.1716 69.896 36.6276 70.024C36.0836 70.168 35.4676 70.24 34.7796 70.24C33.6756 70.24 32.7396 69.976 31.9716 69.448C31.2196 68.904 30.6516 68.144 30.2676 67.168C29.8996 66.176 29.7156 65.016 29.7156 63.688C29.7156 62.36 29.8916 61.192 30.2436 60.184C30.6116 59.176 31.1476 58.392 31.8516 57.832C32.5556 57.272 33.4116 56.992 34.4196 56.992ZM34.4196 58.144C33.4596 58.144 32.6916 58.528 32.1156 59.296C31.5396 60.048 31.2036 61.168 31.1076 62.656H37.3476C37.3476 61.776 37.2436 61 37.0356 60.328C36.8276 59.656 36.5076 59.128 36.0756 58.744C35.6436 58.344 35.0916 58.144 34.4196 58.144Z" fill="black"/>
<path d="M45.7399 56.992C46.6999 56.992 47.4919 57.248 48.1159 57.76C48.7399 58.272 49.2119 58.968 49.5319 59.848C49.8519 60.712 50.0119 61.696 50.0119 62.8V63.76H42.3799C42.3959 65.488 42.7239 66.808 43.3639 67.72C44.0199 68.616 44.9639 69.064 46.1959 69.064C46.8199 69.064 47.3879 69 47.8999 68.872C48.4119 68.728 48.9559 68.504 49.5319 68.2V69.424C49.0199 69.696 48.4919 69.896 47.9479 70.024C47.4039 70.168 46.7879 70.24 46.0999 70.24C44.9959 70.24 44.0599 69.976 43.2919 69.448C42.5399 68.904 41.9719 68.144 41.5879 67.168C41.2199 66.176 41.0359 65.016 41.0359 63.688C41.0359 62.36 41.2119 61.192 41.5639 60.184C41.9319 59.176 42.4679 58.392 43.1719 57.832C43.8759 57.272 44.7319 56.992 45.7399 56.992ZM45.7399 58.144C44.7799 58.144 44.0119 58.528 43.4359 59.296C42.8599 60.048 42.5239 61.168 42.4279 62.656H48.6679C48.6679 61.776 48.5639 61 48.3559 60.328C48.1479 59.656 47.8279 59.128 47.3959 58.744C46.9639 58.344 46.4119 58.144 45.7399 58.144Z" fill="black"/>
<path d="M54.3242 70H52.9803V51.76H54.3242V70Z" fill="black"/>
<path d="M61.765 57.016C63.029 57.016 63.957 57.368 64.549 58.072C65.157 58.776 65.461 59.888 65.461 61.408V70H64.453L64.213 67.912H64.165C63.925 68.36 63.645 68.76 63.325 69.112C63.005 69.464 62.613 69.744 62.149 69.952C61.701 70.144 61.149 70.24 60.493 70.24C59.773 70.24 59.157 70.096 58.645 69.808C58.149 69.504 57.765 69.088 57.493 68.56C57.237 68.016 57.109 67.384 57.109 66.664C57.109 65.384 57.541 64.416 58.405 63.76C59.285 63.088 60.557 62.704 62.221 62.608L64.117 62.488V61.552C64.117 60.304 63.909 59.424 63.493 58.912C63.093 58.4 62.477 58.144 61.645 58.144C61.149 58.144 60.653 58.224 60.157 58.384C59.661 58.528 59.149 58.744 58.621 59.032L58.189 57.976C58.717 57.672 59.277 57.44 59.869 57.28C60.477 57.104 61.109 57.016 61.765 57.016ZM62.389 63.616C61.077 63.696 60.093 63.984 59.437 64.48C58.797 64.976 58.477 65.704 58.477 66.664C58.477 67.464 58.685 68.072 59.101 68.488C59.517 68.904 60.069 69.112 60.757 69.112C61.845 69.112 62.677 68.728 63.253 67.96C63.829 67.192 64.117 66.136 64.117 64.792V63.52L62.389 63.616Z" fill="black"/>
<path d="M73.9555 56.992C75.1715 56.992 76.0995 57.352 76.7395 58.072C77.3795 58.792 77.6995 59.92 77.6995 61.456V70H76.3555V61.624C76.3555 60.44 76.1315 59.568 75.6835 59.008C75.2515 58.448 74.6115 58.168 73.7635 58.168C72.6435 58.168 71.7955 58.568 71.2195 59.368C70.6435 60.168 70.3555 61.376 70.3555 62.992V70H69.0115V57.232H70.0675L70.2595 59.44H70.3315C70.5395 58.976 70.8035 58.56 71.1235 58.192C71.4595 57.824 71.8675 57.536 72.3475 57.328C72.8275 57.104 73.3635 56.992 73.9555 56.992Z" fill="black"/>
<path d="M85.5659 70.24C84.4939 70.24 83.5899 69.984 82.8539 69.472C82.1179 68.96 81.5579 68.216 81.1739 67.24C80.8059 66.264 80.6219 65.088 80.6219 63.712C80.6219 62.272 80.8299 61.056 81.2459 60.064C81.6779 59.056 82.2779 58.296 83.0459 57.784C83.8299 57.256 84.7419 56.992 85.7819 56.992C86.3099 56.992 86.7979 57.048 87.2459 57.16C87.6939 57.256 88.0939 57.4 88.4459 57.592L88.0619 58.72C87.7099 58.56 87.3339 58.432 86.9339 58.336C86.5499 58.24 86.1739 58.192 85.8059 58.192C84.9899 58.192 84.2939 58.408 83.7179 58.84C83.1579 59.272 82.7259 59.896 82.4219 60.712C82.1339 61.528 81.9899 62.52 81.9899 63.688C81.9899 64.776 82.1179 65.728 82.3739 66.544C82.6299 67.344 83.0299 67.96 83.5739 68.392C84.1179 68.824 84.7979 69.04 85.6139 69.04C86.1259 69.04 86.6059 68.984 87.0539 68.872C87.5019 68.76 87.9259 68.616 88.3259 68.44V69.64C87.9739 69.816 87.5579 69.96 87.0779 70.072C86.6139 70.184 86.1099 70.24 85.5659 70.24Z" fill="black"/>
<path d="M94.9821 56.992C95.9421 56.992 96.7341 57.248 97.3581 57.76C97.9821 58.272 98.4541 58.968 98.7741 59.848C99.0941 60.712 99.2541 61.696 99.2541 62.8V63.76H91.6221C91.6381 65.488 91.9661 66.808 92.6061 67.72C93.2621 68.616 94.2061 69.064 95.4381 69.064C96.0621 69.064 96.6301 69 97.1421 68.872C97.6541 68.728 98.1981 68.504 98.7741 68.2V69.424C98.2621 69.696 97.7341 69.896 97.1901 70.024C96.6461 70.168 96.0301 70.24 95.3421 70.24C94.2381 70.24 93.3021 69.976 92.5341 69.448C91.7821 68.904 91.2141 68.144 90.8301 67.168C90.4621 66.176 90.2781 65.016 90.2781 63.688C90.2781 62.36 90.4541 61.192 90.8061 60.184C91.1741 59.176 91.7101 58.392 92.4141 57.832C93.1181 57.272 93.9741 56.992 94.9821 56.992ZM94.9821 58.144C94.0221 58.144 93.2541 58.528 92.6781 59.296C92.1021 60.048 91.7661 61.168 91.6701 62.656H97.9101C97.9101 61.776 97.8061 61 97.5981 60.328C97.3901 59.656 97.0701 59.128 96.6381 58.744C96.2061 58.344 95.6541 58.144 94.9821 58.144Z" fill="black"/>
<path d="M118.439 64.24C118.439 65.552 118.223 66.656 117.791 67.552C117.359 68.432 116.735 69.104 115.919 69.568C115.103 70.016 114.127 70.24 112.991 70.24C111.247 70.24 109.911 69.728 108.983 68.704C108.071 67.664 107.615 66.16 107.615 64.192V52.864H108.983V64.192C108.983 65.808 109.327 67.016 110.015 67.816C110.719 68.616 111.727 69.016 113.039 69.016C113.903 69.016 114.631 68.84 115.223 68.488C115.831 68.136 116.287 67.608 116.591 66.904C116.911 66.2 117.071 65.328 117.071 64.288V52.864H118.439V64.24Z" fill="black"/>
<path d="M125.983 70H121.375V69.16L123.007 68.896V53.992L121.375 53.704V52.864H125.983V53.704L124.375 53.992V68.896L125.983 69.16V70Z" fill="black"/>
<path d="M145.424 61.264C145.424 63.184 145.144 64.792 144.584 66.088C144.024 67.384 143.192 68.36 142.088 69.016C141 69.672 139.648 70 138.032 70H134.384V52.864H138.368C139.904 52.864 141.192 53.184 142.232 53.824C143.288 54.448 144.08 55.384 144.608 56.632C145.152 57.88 145.424 59.424 145.424 61.264ZM143.96 61.312C143.96 59.712 143.752 58.384 143.336 57.328C142.936 56.256 142.304 55.448 141.44 54.904C140.592 54.36 139.512 54.088 138.2 54.088H135.752V68.776H137.96C139.992 68.776 141.496 68.152 142.472 66.904C143.464 65.656 143.96 63.792 143.96 61.312Z" fill="black"/>
<path d="M152.638 56.992C153.598 56.992 154.39 57.248 155.014 57.76C155.638 58.272 156.11 58.968 156.43 59.848C156.75 60.712 156.91 61.696 156.91 62.8V63.76H149.278C149.294 65.488 149.622 66.808 150.262 67.72C150.918 68.616 151.862 69.064 153.094 69.064C153.718 69.064 154.286 69 154.798 68.872C155.31 68.728 155.854 68.504 156.43 68.2V69.424C155.918 69.696 155.39 69.896 154.846 70.024C154.302 70.168 153.686 70.24 152.998 70.24C151.894 70.24 150.958 69.976 150.19 69.448C149.438 68.904 148.87 68.144 148.486 67.168C148.118 66.176 147.934 65.016 147.934 63.688C147.934 62.36 148.11 61.192 148.462 60.184C148.83 59.176 149.366 58.392 150.07 57.832C150.774 57.272 151.63 56.992 152.638 56.992ZM152.638 58.144C151.678 58.144 150.91 58.528 150.334 59.296C149.758 60.048 149.422 61.168 149.326 62.656H155.566C155.566 61.776 155.462 61 155.254 60.328C155.046 59.656 154.726 59.128 154.294 58.744C153.862 58.344 153.31 58.144 152.638 58.144Z" fill="black"/>
<path d="M166.623 66.688C166.623 67.424 166.463 68.064 166.143 68.608C165.823 69.136 165.351 69.544 164.727 69.832C164.119 70.104 163.367 70.24 162.471 70.24C161.719 70.24 161.055 70.16 160.479 70C159.903 69.856 159.415 69.672 159.015 69.448V68.104C159.479 68.392 160.007 68.624 160.599 68.8C161.207 68.976 161.823 69.064 162.447 69.064C163.439 69.064 164.159 68.864 164.607 68.464C165.071 68.048 165.303 67.472 165.303 66.736C165.303 66.288 165.199 65.912 164.991 65.608C164.783 65.288 164.471 65.008 164.055 64.768C163.639 64.512 163.111 64.248 162.471 63.976C161.815 63.672 161.231 63.376 160.719 63.088C160.223 62.784 159.831 62.416 159.543 61.984C159.271 61.536 159.135 60.96 159.135 60.256C159.135 59.248 159.487 58.456 160.191 57.88C160.911 57.288 161.879 56.992 163.095 56.992C163.735 56.992 164.335 57.064 164.895 57.208C165.455 57.336 165.967 57.52 166.431 57.76L165.951 58.864C165.679 58.72 165.383 58.6 165.063 58.504C164.759 58.392 164.431 58.304 164.079 58.24C163.743 58.176 163.407 58.144 163.071 58.144C162.255 58.144 161.607 58.328 161.127 58.696C160.663 59.048 160.431 59.552 160.431 60.208C160.431 60.688 160.535 61.072 160.743 61.36C160.951 61.648 161.263 61.912 161.679 62.152C162.111 62.376 162.631 62.632 163.239 62.92C163.879 63.208 164.455 63.504 164.967 63.808C165.479 64.112 165.879 64.488 166.167 64.936C166.471 65.368 166.623 65.952 166.623 66.688Z" fill="black"/>
<path d="M170.762 57.232V70H169.418V57.232H170.762ZM170.114 52.48C170.402 52.48 170.618 52.576 170.762 52.768C170.922 52.96 171.002 53.216 171.002 53.536C171.002 53.872 170.922 54.136 170.762 54.328C170.618 54.52 170.402 54.616 170.114 54.616C169.826 54.616 169.602 54.52 169.442 54.328C169.282 54.136 169.202 53.872 169.202 53.536C169.202 53.216 169.274 52.96 169.418 52.768C169.578 52.576 169.81 52.48 170.114 52.48Z" fill="black"/>
<path d="M178.322 56.992C179.186 56.992 179.89 57.192 180.434 57.592C180.994 57.976 181.442 58.496 181.778 59.152H181.85L182.042 57.232H183.122V70.432C183.122 71.568 182.946 72.528 182.594 73.312C182.258 74.112 181.73 74.72 181.01 75.136C180.29 75.552 179.354 75.76 178.202 75.76C177.434 75.76 176.746 75.688 176.138 75.544C175.53 75.416 174.97 75.224 174.458 74.968V73.648C174.81 73.84 175.178 74.008 175.562 74.152C175.962 74.296 176.386 74.408 176.834 74.488C177.282 74.568 177.746 74.608 178.226 74.608C179.426 74.608 180.322 74.256 180.914 73.552C181.506 72.864 181.802 71.872 181.802 70.576V69.808C181.802 69.488 181.802 69.152 181.802 68.8C181.818 68.448 181.842 68.096 181.874 67.744H181.802C181.482 68.544 181.018 69.16 180.41 69.592C179.802 70.024 179.058 70.24 178.178 70.24C176.786 70.24 175.698 69.688 174.914 68.584C174.146 67.464 173.762 65.84 173.762 63.712C173.762 62.304 173.938 61.104 174.29 60.112C174.642 59.104 175.154 58.336 175.826 57.808C176.498 57.264 177.33 56.992 178.322 56.992ZM178.514 58.168C177.746 58.168 177.114 58.392 176.618 58.84C176.138 59.272 175.77 59.904 175.514 60.736C175.258 61.552 175.13 62.544 175.13 63.712C175.13 65.504 175.41 66.848 175.97 67.744C176.53 68.64 177.338 69.088 178.394 69.088C179.05 69.088 179.586 68.968 180.002 68.728C180.434 68.472 180.778 68.128 181.034 67.696C181.306 67.248 181.498 66.728 181.61 66.136C181.738 65.544 181.802 64.904 181.802 64.216V63.112C181.802 62.056 181.69 61.168 181.466 60.448C181.242 59.712 180.89 59.152 180.41 58.768C179.93 58.368 179.298 58.168 178.514 58.168Z" fill="black"/>
<path d="M191.706 56.992C192.922 56.992 193.85 57.352 194.49 58.072C195.13 58.792 195.449 59.92 195.449 61.456V70H194.105V61.624C194.105 60.44 193.882 59.568 193.434 59.008C193.002 58.448 192.362 58.168 191.514 58.168C190.394 58.168 189.545 58.568 188.969 59.368C188.393 60.168 188.105 61.376 188.105 62.992V70H186.762V57.232H187.818L188.01 59.44H188.081C188.289 58.976 188.554 58.56 188.874 58.192C189.21 57.824 189.618 57.536 190.098 57.328C190.578 57.104 191.114 56.992 191.706 56.992Z" fill="black"/>
<path d="M203.076 56.992C204.036 56.992 204.828 57.248 205.452 57.76C206.076 58.272 206.548 58.968 206.868 59.848C207.188 60.712 207.348 61.696 207.348 62.8V63.76H199.716C199.732 65.488 200.06 66.808 200.7 67.72C201.356 68.616 202.3 69.064 203.532 69.064C204.156 69.064 204.724 69 205.236 68.872C205.748 68.728 206.292 68.504 206.868 68.2V69.424C206.356 69.696 205.828 69.896 205.284 70.024C204.74 70.168 204.124 70.24 203.436 70.24C202.332 70.24 201.396 69.976 200.628 69.448C199.876 68.904 199.308 68.144 198.924 67.168C198.556 66.176 198.372 65.016 198.372 63.688C198.372 62.36 198.548 61.192 198.9 60.184C199.268 59.176 199.804 58.392 200.508 57.832C201.212 57.272 202.068 56.992 203.076 56.992ZM203.076 58.144C202.116 58.144 201.348 58.528 200.772 59.296C200.196 60.048 199.86 61.168 199.764 62.656H206.004C206.004 61.776 205.9 61 205.692 60.328C205.484 59.656 205.164 59.128 204.732 58.744C204.3 58.344 203.748 58.144 203.076 58.144Z" fill="black"/>
<path d="M214.876 57.016C215.132 57.016 215.38 57.032 215.62 57.064C215.86 57.096 216.084 57.152 216.292 57.232L216.076 58.504C215.884 58.44 215.676 58.392 215.452 58.36C215.244 58.312 215.028 58.288 214.804 58.288C214.324 58.288 213.884 58.416 213.484 58.672C213.1 58.912 212.772 59.248 212.5 59.68C212.228 60.112 212.02 60.624 211.876 61.216C211.732 61.792 211.66 62.424 211.66 63.112V70H210.316V57.232H211.42L211.588 59.68H211.66C211.836 59.2 212.068 58.76 212.356 58.36C212.66 57.944 213.02 57.616 213.436 57.376C213.868 57.136 214.348 57.016 214.876 57.016Z" fill="black"/>
</svg>
